<svg xmlns="http://www.w3.org/2000/svg" xmlns:xlink="http://www.w3.org/1999/xlink" preserveAspectRatio="xMidYMid" width="24.031" height="15" viewBox="0 0 24.031 15">
  <defs>
    <style>
      .cls-1 {
        fill: #fff;
        fill-rule: evenodd;
      }
    </style>
  </defs>
  <path d="M23.643,7.067 L24.030,7.311 L23.913,7.500 L24.028,7.686 L23.646,7.927 L23.603,7.997 L23.570,7.976 L13.031,14.630 L13.031,15.000 L12.031,15.000 L12.031,1.000 L12.515,1.000 L12.024,0.690 L12.451,0.005 L23.570,7.021 L23.602,7.001 L23.643,7.067 ZM13.031,1.326 L13.031,13.676 L22.814,7.499 L13.031,1.326 ZM12.020,7.686 L11.638,7.927 L11.594,7.997 L11.561,7.976 L1.031,14.625 L1.031,15.000 L0.031,15.000 L0.031,1.000 L0.506,1.000 L0.015,0.690 L0.442,0.005 L11.561,7.021 L11.593,7.001 L11.634,7.067 L12.021,7.311 L11.904,7.500 L12.020,7.686 ZM1.031,1.331 L1.031,13.670 L10.805,7.499 L1.031,1.331 Z" class="cls-1"/>
</svg>
