<svg xmlns="http://www.w3.org/2000/svg" xmlns:xlink="http://www.w3.org/1999/xlink" preserveAspectRatio="xMidYMid" width="25" height="22" viewBox="0 0 25 22">
  <defs>
    <style>
      .cls-1 {
        fill: #fff;
        fill-rule: evenodd;
      }
    </style>
  </defs>
  <path d="M22.018,17.029 C21.946,17.078 21.865,17.101 21.785,17.101 C21.648,17.101 21.514,17.034 21.433,16.910 C21.303,16.713 21.356,16.447 21.550,16.316 C21.655,16.243 24.154,14.495 24.154,11.002 C24.154,7.492 21.576,5.705 21.550,5.688 C21.356,5.556 21.303,5.290 21.433,5.093 C21.562,4.896 21.824,4.842 22.018,4.974 C22.140,5.057 24.998,7.038 24.998,11.002 C24.998,14.966 22.140,16.947 22.018,17.029 ZM19.903,14.301 C19.843,14.332 19.778,14.347 19.715,14.347 C19.560,14.347 19.504,14.260 19.430,14.110 C19.326,13.898 19.317,13.640 19.526,13.534 C19.572,13.510 20.728,12.876 20.728,11.002 C20.728,9.127 19.572,8.494 19.522,8.467 C19.317,8.359 19.328,8.101 19.434,7.891 C19.539,7.682 19.696,7.597 19.903,7.702 C19.971,7.736 21.572,8.577 21.572,11.002 C21.572,13.426 19.971,14.267 19.903,14.301 ZM2.000,16.000 C0.836,16.000 -0.150,15.310 -0.005,13.575 L-0.005,8.428 C-0.059,7.068 0.836,6.000 2.000,6.000 L7.000,6.000 L17.000,-0.000 L17.000,22.000 L7.000,16.000 L2.000,16.000 ZM7.000,7.000 L2.107,7.142 C1.444,7.130 1.177,7.609 0.986,8.381 C0.840,8.428 1.000,14.000 1.000,14.000 C1.000,14.709 1.301,15.000 2.000,15.000 L7.000,15.000 L7.000,7.000 ZM8.000,15.000 L16.000,20.000 L16.000,2.000 L8.000,7.000 L8.000,15.000 Z" class="cls-1"/>
</svg>
