<svg xmlns="http://www.w3.org/2000/svg" xmlns:xlink="http://www.w3.org/1999/xlink" preserveAspectRatio="xMidYMid" width="18" height="18" viewBox="0 0 18 18">
  <defs>
    <style>
      .cls-1 {
        fill: #fff;
        fill-rule: evenodd;
      }
    </style>
  </defs>
  <path d="M17.000,5.000 L17.000,1.000 L13.000,1.000 L13.000,-0.000 L17.000,-0.000 L18.000,-0.000 L18.000,1.000 L18.000,5.000 L17.000,5.000 ZM1.000,5.000 L-0.000,5.000 L-0.000,1.000 L-0.000,-0.000 L1.000,-0.000 L5.000,-0.000 L5.000,1.000 L1.000,1.000 L1.000,5.000 ZM1.000,13.000 L1.000,17.000 L5.000,17.000 L5.000,18.000 L1.000,18.000 L-0.000,18.000 L-0.000,17.000 L-0.000,13.000 L1.000,13.000 ZM17.000,13.000 L18.000,13.000 L18.000,17.000 L18.000,18.000 L17.000,18.000 L13.000,18.000 L13.000,17.000 L17.000,17.000 L17.000,13.000 Z" class="cls-1"/>
</svg>
