<svg xmlns="http://www.w3.org/2000/svg" xmlns:xlink="http://www.w3.org/1999/xlink" preserveAspectRatio="xMidYMid" width="25" height="22" viewBox="0 0 25 22">
  <defs>
    <style>
      .cls-1 {
        fill: #fff;
        fill-rule: evenodd;
      }
    </style>
  </defs>
  <path d="M22.548,11.002 L24.870,13.272 C25.041,13.439 25.041,13.710 24.870,13.878 C24.784,13.962 24.672,14.004 24.559,14.004 C24.447,14.004 24.335,13.962 24.249,13.878 L21.928,11.608 L19.606,13.878 C19.521,13.962 19.409,14.004 19.296,14.004 C19.184,14.004 19.072,13.962 18.986,13.878 C18.815,13.710 18.815,13.439 18.986,13.272 L21.308,11.002 L18.986,8.732 C18.815,8.564 18.815,8.293 18.986,8.125 C19.158,7.958 19.435,7.958 19.606,8.125 L21.928,10.395 L24.249,8.125 C24.421,7.958 24.698,7.958 24.870,8.125 C25.041,8.293 25.041,8.564 24.870,8.732 L22.548,11.002 ZM2.000,16.000 C0.836,16.000 -0.150,15.310 -0.005,13.575 L-0.005,8.428 C-0.059,7.068 0.836,6.000 2.000,6.000 L7.000,6.000 L17.000,-0.000 L17.000,22.000 L7.000,16.000 L2.000,16.000 ZM7.000,7.000 L2.107,7.142 C1.444,7.130 1.177,7.609 0.986,8.381 C0.840,8.428 1.000,14.000 1.000,14.000 C1.000,14.709 1.301,15.000 2.000,15.000 L7.000,15.000 L7.000,7.000 ZM8.000,15.000 L16.000,20.000 L16.000,2.000 L8.000,7.000 L8.000,15.000 Z" class="cls-1"/>
</svg>
