<?xml version="1.0" encoding="UTF-8"?>
<svg width="18px" height="16px" viewBox="0 0 18 16" version="1.1" xmlns="http://www.w3.org/2000/svg" xmlns:xlink="http://www.w3.org/1999/xlink">
    <!-- Generator: Sketch 46.2 (44496) - http://www.bohemiancoding.com/sketch -->
    <title>Path</title>
    <desc>Created with Sketch.</desc>
    <defs></defs>
    <g id="Symbols" stroke="none" stroke-width="1" fill="none" fill-rule="evenodd">
        <g id="btn_add" transform="translate(-10.000000, -11.000000)" fill="#FFFFFF">
            <g id="normal">
                <g>
                    <path d="M23.27275,13.2925 L18.97475,17.5925 L14.73875,13.3525 C14.34775,12.9625 13.71375,12.9625 13.32475,13.3525 C12.93375,13.7425 12.93375,14.3825 13.32475,14.7725 L17.56075,19.0025 L13.29475,23.2725 C12.90175,23.6625 12.90175,24.3025 13.29475,24.7025 C13.68875,25.0925 14.32675,25.0925 14.72075,24.7025 L18.98675,20.4325 L23.22275,24.6725 C23.61375,25.0625 24.24775,25.0625 24.63775,24.6725 C25.02875,24.2825 25.02875,23.6425 24.63775,23.2525 L20.40075,19.0225 L24.69775,14.7225 C25.09075,14.3225 25.09075,13.6925 24.69775,13.2925 C24.30375,12.9025 23.66675,12.9025 23.27275,13.2925 Z" id="Path" transform="translate(18.996250, 18.997500) rotate(-315.000000) translate(-18.996250, -18.997500) "></path>
                </g>
            </g>
        </g>
    </g>
</svg>